<?xml version="1.0" encoding="UTF-8"?>
<!--Generator: Apple Native CoreSVG 149-->
<!DOCTYPE svg
PUBLIC "-//W3C//DTD SVG 1.1//EN"
       "http://www.w3.org/Graphics/SVG/1.1/DTD/svg11.dtd">
<svg version="1.1" xmlns="http://www.w3.org/2000/svg" xmlns:xlink="http://www.w3.org/1999/xlink" width="3300" height="2200">
 <!--glyph: "uni10036A.medium", point size: 100.000000, font version: "Version 16.0d18e1", template writer version: "8"-->
 <g id="Notes">
  <rect height="2200" id="artboard" style="fill:white;opacity:1" width="3300" x="0" y="0"/>
  <line id="" style="fill:none;stroke:black;opacity:1;stroke-width:0.5;" x1="263" x2="3036" y1="292" y2="292"/>
  <text style="stroke:none;fill:black;font-family:-apple-system,&quot;SF Pro Display&quot;,&quot;SF Pro Text&quot;,Helvetica,sans-serif;font-weight:bold;" transform="matrix(1 0 0 1 263 322)">Weight/Scale Variations</text>
  <text style="stroke:none;fill:black;font-family:-apple-system,&quot;SF Pro Display&quot;,&quot;SF Pro Text&quot;,Helvetica,sans-serif;text-anchor:middle;" transform="matrix(1 0 0 1 559.711 322)">Ultralight</text>
  <text style="stroke:none;fill:black;font-family:-apple-system,&quot;SF Pro Display&quot;,&quot;SF Pro Text&quot;,Helvetica,sans-serif;text-anchor:middle;" transform="matrix(1 0 0 1 856.422 322)">Thin</text>
  <text style="stroke:none;fill:black;font-family:-apple-system,&quot;SF Pro Display&quot;,&quot;SF Pro Text&quot;,Helvetica,sans-serif;text-anchor:middle;" transform="matrix(1 0 0 1 1153.13 322)">Light</text>
  <text style="stroke:none;fill:black;font-family:-apple-system,&quot;SF Pro Display&quot;,&quot;SF Pro Text&quot;,Helvetica,sans-serif;text-anchor:middle;" transform="matrix(1 0 0 1 1449.84 322)">Regular</text>
  <text style="stroke:none;fill:black;font-family:-apple-system,&quot;SF Pro Display&quot;,&quot;SF Pro Text&quot;,Helvetica,sans-serif;text-anchor:middle;" transform="matrix(1 0 0 1 1746.56 322)">Medium</text>
  <text style="stroke:none;fill:black;font-family:-apple-system,&quot;SF Pro Display&quot;,&quot;SF Pro Text&quot;,Helvetica,sans-serif;text-anchor:middle;" transform="matrix(1 0 0 1 2043.27 322)">Semibold</text>
  <text style="stroke:none;fill:black;font-family:-apple-system,&quot;SF Pro Display&quot;,&quot;SF Pro Text&quot;,Helvetica,sans-serif;text-anchor:middle;" transform="matrix(1 0 0 1 2339.98 322)">Bold</text>
  <text style="stroke:none;fill:black;font-family:-apple-system,&quot;SF Pro Display&quot;,&quot;SF Pro Text&quot;,Helvetica,sans-serif;text-anchor:middle;" transform="matrix(1 0 0 1 2636.69 322)">Heavy</text>
  <text style="stroke:none;fill:black;font-family:-apple-system,&quot;SF Pro Display&quot;,&quot;SF Pro Text&quot;,Helvetica,sans-serif;text-anchor:middle;" transform="matrix(1 0 0 1 2933.4 322)">Black</text>
  <line id="" style="fill:none;stroke:black;opacity:1;stroke-width:0.5;" x1="263" x2="3036" y1="1903" y2="1903"/>
  <g id="" transform="matrix(1 0 0 1 263 1933)">
   <path d="M9.24805 0.830078C13.5547 0.830078 17.1387-2.74414 17.1387-7.05078C17.1387-11.3574 13.5449-14.9316 9.23828-14.9316C4.94141-14.9316 1.36719-11.3574 1.36719-7.05078C1.36719-2.74414 4.95117 0.830078 9.24805 0.830078ZM9.24805-0.654297C5.70312-0.654297 2.87109-3.49609 2.87109-7.05078C2.87109-10.6055 5.69336-13.4473 9.23828-13.4473C12.793-13.4473 15.6348-10.6055 15.6445-7.05078C15.6543-3.49609 12.8027-0.654297 9.24805-0.654297ZM6.39648-6.31836L8.50586-6.31836L8.50586-4.19922C8.50586-3.75977 8.79883-3.45703 9.22852-3.45703C9.67773-3.45703 9.9707-3.75977 9.9707-4.19922L9.9707-6.31836L12.0996-6.31836C12.5391-6.31836 12.8418-6.61133 12.8418-7.04102C12.8418-7.48047 12.5391-7.7832 12.0996-7.7832L9.9707-7.7832L9.9707-9.89258C9.9707-10.3418 9.67773-10.6445 9.22852-10.6445C8.79883-10.6445 8.50586-10.3418 8.50586-9.89258L8.50586-7.7832L6.39648-7.7832C5.94727-7.7832 5.64453-7.48047 5.64453-7.04102C5.64453-6.61133 5.94727-6.31836 6.39648-6.31836Z"/>
  </g>
  <g id="" transform="matrix(1 0 0 1 281.506 1933)">
   <path d="M11.709 2.91016C17.1582 2.91016 21.6699-1.61133 21.6699-7.05078C21.6699-12.5 17.1484-17.0117 11.6992-17.0117C6.25977-17.0117 1.74805-12.5 1.74805-7.05078C1.74805-1.61133 6.26953 2.91016 11.709 2.91016ZM11.709 1.25C7.09961 1.25 3.41797-2.44141 3.41797-7.05078C3.41797-11.6602 7.08984-15.3516 11.6992-15.3516C16.3086-15.3516 20-11.6602 20.0098-7.05078C20.0195-2.44141 16.3184 1.25 11.709 1.25ZM7.98828-6.23047L10.8789-6.23047L10.8789-3.32031C10.8789-2.83203 11.2109-2.5 11.6895-2.5C12.1777-2.5 12.5195-2.83203 12.5195-3.32031L12.5195-6.23047L15.4297-6.23047C15.918-6.23047 16.25-6.5625 16.25-7.04102C16.25-7.5293 15.918-7.87109 15.4297-7.87109L12.5195-7.87109L12.5195-10.7617C12.5195-11.2695 12.1777-11.6016 11.6895-11.6016C11.2109-11.6016 10.8789-11.2598 10.8789-10.7617L10.8789-7.87109L7.98828-7.87109C7.48047-7.87109 7.14844-7.5293 7.14844-7.04102C7.14844-6.5625 7.49023-6.23047 7.98828-6.23047Z"/>
  </g>
  <g id="" transform="matrix(1 0 0 1 304.924 1933)">
   <path d="M14.9707 5.66406C21.9336 5.66406 27.6953-0.0976562 27.6953-7.05078C27.6953-14.0137 21.9238-19.7754 14.9609-19.7754C8.00781-19.7754 2.25586-14.0137 2.25586-7.05078C2.25586-0.0976562 8.01758 5.66406 14.9707 5.66406ZM14.9707 3.84766C8.93555 3.84766 4.08203-1.01562 4.08203-7.05078C4.08203-13.0957 8.92578-17.9492 14.9609-17.9492C21.0059-17.9492 25.8594-13.0957 25.8691-7.05078C25.8789-1.01562 21.0156 3.84766 14.9707 3.84766ZM10.0586-6.14258L14.0625-6.14258L14.0625-2.12891C14.0625-1.5918 14.4336-1.2207 14.9512-1.2207C15.4883-1.2207 15.8594-1.5918 15.8594-2.12891L15.8594-6.14258L19.8828-6.14258C20.4102-6.14258 20.791-6.51367 20.791-7.03125C20.791-7.56836 20.4199-7.94922 19.8828-7.94922L15.8594-7.94922L15.8594-11.9531C15.8594-12.5098 15.4883-12.8809 14.9512-12.8809C14.4336-12.8809 14.0625-12.5 14.0625-11.9531L14.0625-7.94922L10.0586-7.94922C9.50195-7.94922 9.13086-7.56836 9.13086-7.03125C9.13086-6.51367 9.51172-6.14258 10.0586-6.14258Z"/>
  </g>
  <text style="stroke:none;fill:black;font-family:-apple-system,&quot;SF Pro Display&quot;,&quot;SF Pro Text&quot;,Helvetica,sans-serif;font-weight:bold;" transform="matrix(1 0 0 1 263 1953)">Design Variations</text>
  <text style="stroke:none;fill:black;font-family:-apple-system,&quot;SF Pro Display&quot;,&quot;SF Pro Text&quot;,Helvetica,sans-serif;" transform="matrix(1 0 0 1 263 1971)">Symbols are supported in up to nine weights and three scales.</text>
  <text style="stroke:none;fill:black;font-family:-apple-system,&quot;SF Pro Display&quot;,&quot;SF Pro Text&quot;,Helvetica,sans-serif;" transform="matrix(1 0 0 1 263 1989)">For optimal layout with text and other symbols, vertically align</text>
  <text style="stroke:none;fill:black;font-family:-apple-system,&quot;SF Pro Display&quot;,&quot;SF Pro Text&quot;,Helvetica,sans-serif;" transform="matrix(1 0 0 1 263 2007)">symbols with the adjacent text.</text>
  <line id="" style="fill:none;stroke:#00AEEF;stroke-width:0.5;opacity:1.0;" x1="776" x2="776" y1="1919" y2="1933"/>
  <g id="" transform="matrix(1 0 0 1 776 1933)">
   <path d="M3.31055 0.126953C3.82812 0.126953 4.08203-0.0683594 4.26758-0.605469L5.52734-4.0625L11.2891-4.0625L12.5488-0.605469C12.7344-0.0683594 12.9883 0.126953 13.4961 0.126953C14.0137 0.126953 14.3457-0.185547 14.3457-0.673828C14.3457-0.839844 14.3164-0.986328 14.2383-1.20117L9.6582-13.3887C9.43359-13.9941 9.0332-14.2871 8.4082-14.2871C7.80273-14.2871 7.39258-13.9941 7.17773-13.3984L2.59766-1.19141C2.51953-0.976562 2.49023-0.830078 2.49023-0.664062C2.49023-0.175781 2.80273 0.126953 3.31055 0.126953ZM6.00586-5.53711L8.37891-12.1094L8.42773-12.1094L10.8008-5.53711Z"/>
  </g>
  <line id="" style="fill:none;stroke:#00AEEF;stroke-width:0.5;opacity:1.0;" x1="792.836" x2="792.836" y1="1919" y2="1933"/>
  <text style="stroke:none;fill:black;font-family:-apple-system,&quot;SF Pro Display&quot;,&quot;SF Pro Text&quot;,Helvetica,sans-serif;font-weight:bold;" transform="matrix(1 0 0 1 776 1953)">Margins</text>
  <text style="stroke:none;fill:black;font-family:-apple-system,&quot;SF Pro Display&quot;,&quot;SF Pro Text&quot;,Helvetica,sans-serif;" transform="matrix(1 0 0 1 776 1971)">Leading and trailing margins on the left and right side of each symbol</text>
  <text style="stroke:none;fill:black;font-family:-apple-system,&quot;SF Pro Display&quot;,&quot;SF Pro Text&quot;,Helvetica,sans-serif;" transform="matrix(1 0 0 1 776 1989)">can be adjusted by modifying the x-location of the margin guidelines.</text>
  <text style="stroke:none;fill:black;font-family:-apple-system,&quot;SF Pro Display&quot;,&quot;SF Pro Text&quot;,Helvetica,sans-serif;" transform="matrix(1 0 0 1 776 2007)">Modifications are automatically applied proportionally to all</text>
  <text style="stroke:none;fill:black;font-family:-apple-system,&quot;SF Pro Display&quot;,&quot;SF Pro Text&quot;,Helvetica,sans-serif;" transform="matrix(1 0 0 1 776 2025)">scales and weights.</text>
  <g id="" transform="matrix(1 0 0 1 1289 1933)">
   <path d="M2.8418 1.86523L4.54102 3.57422C5.40039 4.44336 6.38672 4.38477 7.31445 3.35938L17.4902-7.85156C17.7539-7.76367 18.0273-7.7832 18.3398-7.8418L19.4043-8.03711L20.0684-7.36328L20.0293-6.80664C19.9902-6.30859 20.1172-5.92773 20.6055-5.44922L21.3672-4.70703C21.8457-4.22852 22.4609-4.19922 22.9297-4.66797L25.8398-7.58789C26.3086-8.05664 26.2891-8.65234 25.8105-9.13086L25.0391-9.89258C24.5605-10.3711 24.1895-10.5273 23.7109-10.4883L23.1348-10.4395L22.4902-11.0742L22.7344-12.1973C22.8613-12.7637 22.7051-13.2031 22.1191-13.7891L19.9219-15.9766C16.582-19.2969 12.1484-19.2188 9.25781-16.3281C8.83789-15.918 8.80859-15.3418 9.04297-14.9512C9.27734-14.5898 9.73633-14.3555 10.3809-14.5215C11.8457-14.8633 13.3691-14.9219 14.7949-13.9844L14.209-12.5293C14.0137-12.0508 13.9844-11.6504 14.1113-11.2891L3.04688-0.898438C2.06055 0.0195312 1.98242 0.996094 2.8418 1.86523ZM10.752-15.957C13.1836-17.7344 16.4746-17.4316 18.7012-15.2051L21.1328-12.793C21.3672-12.5586 21.4062-12.373 21.3379-12.0312L21.0156-10.5469L22.5195-9.0625L23.5059-9.12109C23.7598-9.13086 23.8379-9.11133 24.0332-8.91602L24.6094-8.33984L22.168-5.89844L21.5918-6.47461C21.3965-6.66992 21.3672-6.74805 21.377-7.01172L21.4453-7.98828L19.9512-9.47266L18.4277-9.21875C18.1055-9.15039 17.959-9.17969 17.7148-9.41406L15.7129-11.416C15.459-11.6504 15.4297-11.8164 15.5859-12.1875L16.4648-14.2773C14.9023-15.7324 12.8711-16.3574 10.8398-15.7617C10.6836-15.7227 10.625-15.8496 10.752-15.957ZM5.27344 2.30469L4.10156 1.14258C3.63281 0.683594 3.74023 0.341797 4.14062-0.0195312L14.9512-10.1953L16.416-8.71094L6.42578 2.27539C6.07422 2.67578 5.74219 2.77344 5.27344 2.30469Z"/>
  </g>
  <text style="stroke:none;fill:black;font-family:-apple-system,&quot;SF Pro Display&quot;,&quot;SF Pro Text&quot;,Helvetica,sans-serif;font-weight:bold;" transform="matrix(1 0 0 1 1289 1953)">Exporting</text>
  <text style="stroke:none;fill:black;font-family:-apple-system,&quot;SF Pro Display&quot;,&quot;SF Pro Text&quot;,Helvetica,sans-serif;" transform="matrix(1 0 0 1 1289 1971)">Symbols should be outlined when exporting to ensure the</text>
  <text style="stroke:none;fill:black;font-family:-apple-system,&quot;SF Pro Display&quot;,&quot;SF Pro Text&quot;,Helvetica,sans-serif;" transform="matrix(1 0 0 1 1289 1989)">design is preserved when submitting to Xcode.</text>
  <text id="template-version" style="stroke:none;fill:black;font-family:-apple-system,&quot;SF Pro Display&quot;,&quot;SF Pro Text&quot;,Helvetica,sans-serif;text-anchor:end;" transform="matrix(1 0 0 1 3036 1933)">Template v.2.0</text>
  <text style="stroke:none;fill:black;font-family:-apple-system,&quot;SF Pro Display&quot;,&quot;SF Pro Text&quot;,Helvetica,sans-serif;text-anchor:end;" transform="matrix(1 0 0 1 3036 1951)">Requires Xcode 12 or greater</text>
  <text style="stroke:none;fill:black;font-family:-apple-system,&quot;SF Pro Display&quot;,&quot;SF Pro Text&quot;,Helvetica,sans-serif;text-anchor:end;" transform="matrix(1 0 0 1 3036 1969)">Generated from cart.fill</text>
  <text style="stroke:none;fill:black;font-family:-apple-system,&quot;SF Pro Display&quot;,&quot;SF Pro Text&quot;,Helvetica,sans-serif;text-anchor:end;" transform="matrix(1 0 0 1 3036 1987)">Typeset at 100 points</text>
  <text style="stroke:none;fill:black;font-family:-apple-system,&quot;SF Pro Display&quot;,&quot;SF Pro Text&quot;,Helvetica,sans-serif;" transform="matrix(1 0 0 1 263 726)">Small</text>
  <text style="stroke:none;fill:black;font-family:-apple-system,&quot;SF Pro Display&quot;,&quot;SF Pro Text&quot;,Helvetica,sans-serif;" transform="matrix(1 0 0 1 263 1156)">Medium</text>
  <text style="stroke:none;fill:black;font-family:-apple-system,&quot;SF Pro Display&quot;,&quot;SF Pro Text&quot;,Helvetica,sans-serif;" transform="matrix(1 0 0 1 263 1586)">Large</text>
 </g>
 <g id="Guides">
  <g id="H-reference" style="fill:#27AAE1;stroke:none;" transform="matrix(1 0 0 1 339 696)">
   <path d="M0.976562 0L3.66211 0L12.9883-24.4629L45.752-24.4629L55.127 0L57.7637 0L30.6152-70.459L28.125-70.459ZM29.3457-67.1387L29.4434-67.1387L44.873-26.709L13.8672-26.709Z"/>
  </g>
  <line id="Baseline-S" style="fill:none;stroke:#27AAE1;opacity:1;stroke-width:0.5;" x1="263" x2="3036" y1="696" y2="696"/>
  <line id="Capline-S" style="fill:none;stroke:#27AAE1;opacity:1;stroke-width:0.5;" x1="263" x2="3036" y1="625.541" y2="625.541"/>
  <g id="H-reference" style="fill:#27AAE1;stroke:none;" transform="matrix(1 0 0 1 339 1126)">
   <path d="M0.976562 0L3.66211 0L12.9883-24.4629L45.752-24.4629L55.127 0L57.7637 0L30.6152-70.459L28.125-70.459ZM29.3457-67.1387L29.4434-67.1387L44.873-26.709L13.8672-26.709Z"/>
  </g>
  <line id="Baseline-M" style="fill:none;stroke:#27AAE1;opacity:1;stroke-width:0.5;" x1="263" x2="3036" y1="1126" y2="1126"/>
  <line id="Capline-M" style="fill:none;stroke:#27AAE1;opacity:1;stroke-width:0.5;" x1="263" x2="3036" y1="1055.54" y2="1055.54"/>
  <g id="H-reference" style="fill:#27AAE1;stroke:none;" transform="matrix(1 0 0 1 339 1556)">
   <path d="M0.976562 0L3.66211 0L12.9883-24.4629L45.752-24.4629L55.127 0L57.7637 0L30.6152-70.459L28.125-70.459ZM29.3457-67.1387L29.4434-67.1387L44.873-26.709L13.8672-26.709Z"/>
  </g>
  <line id="Baseline-L" style="fill:none;stroke:#27AAE1;opacity:1;stroke-width:0.5;" x1="263" x2="3036" y1="1556" y2="1556"/>
  <line id="Capline-L" style="fill:none;stroke:#27AAE1;opacity:1;stroke-width:0.5;" x1="263" x2="3036" y1="1485.54" y2="1485.54"/>
  <line id="left-margin" style="fill:none;stroke:#00AEEF;stroke-width:0.5;opacity:1.0;" x1="1382.29" x2="1382.29" y1="1030.79" y2="1150.12"/>
  <line id="right-margin" style="fill:none;stroke:#00AEEF;stroke-width:0.5;opacity:1.0;" x1="1517.4" x2="1517.4" y1="1030.79" y2="1150.12"/>
 </g>
 <g id="Symbols">
  <g id="Black-L" transform="matrix(1 0 0 1 2843.97 1556)">
   <path d="M12.8906-85.6445C12.8906-80.1758 17.4805-75.6348 22.8027-75.6348L37.5-75.6348L46.1426-17.0898C47.8027-5.76172 54.0039 0.927734 65.332 0.927734L137.842 0.927734C142.529 0.927734 146.826-2.39258 146.826-7.66602C146.826-12.9395 142.529-16.1621 137.842-16.1621L67.8223-16.1621C66.6016-16.1621 65.8203-17.1387 65.625-18.457L64.7949-24.4141L139.6-24.4141C150.732-24.4141 157.031-30.957 158.691-42.3828L162.402-68.3105C162.549-69.3359 162.744-70.5566 162.744-71.6797C162.744-77.2949 159.18-81.3477 152.002-81.3477L56.8848-81.3477L56.4453-84.2773C55.4199-91.7969 51.6602-95.6543 42.5293-95.6543L22.8027-95.6543C17.4805-95.6543 12.8906-91.0645 12.8906-85.6445ZM57.3242 22.0215C57.3242 29.4922 63.3789 35.4004 70.7031 35.4004C78.125 35.4004 84.082 29.4922 84.082 22.0215C84.082 14.6484 78.125 8.64258 70.7031 8.64258C63.3789 8.64258 57.3242 14.6484 57.3242 22.0215ZM113.574 22.0215C113.574 29.4922 119.58 35.4004 126.953 35.4004C134.375 35.4004 140.332 29.4922 140.332 22.0215C140.332 14.6484 134.375 8.64258 126.953 8.64258C119.58 8.64258 113.574 14.6484 113.574 22.0215Z"/>
  </g>
  <g id="Heavy-L" transform="matrix(1 0 0 1 2547.94 1556)">
   <path d="M12.8906-86.2305C12.8906-81.5918 16.7969-77.6367 21.3867-77.6367L37.8418-77.6367L46.875-16.2109C48.4375-5.56641 54.248 0.78125 64.8438 0.78125L137.793 0.78125C141.895 0.78125 145.557-2.14844 145.557-6.78711C145.557-11.3281 141.895-14.209 137.793-14.209L67.041-14.209C65.1855-14.209 64.0625-15.5762 63.7695-17.5293L62.8418-23.877L139.062-23.877C149.658-23.877 155.518-30.0781 157.031-40.8691L161.084-68.7012C161.23-69.6289 161.426-70.8008 161.426-71.7773C161.426-76.709 158.203-80.2734 152.002-80.2734L54.9316-80.2734L54.248-84.668C53.3203-91.4062 50.0977-94.873 41.7969-94.873L21.3867-94.873C16.7969-94.873 12.8906-90.918 12.8906-86.2305ZM57.8125 21.7285C57.8125 28.7109 63.4766 34.3262 70.4102 34.3262C77.3926 34.3262 82.959 28.7109 82.959 21.7285C82.959 14.7461 77.3926 9.13086 70.4102 9.13086C63.4766 9.13086 57.8125 14.7461 57.8125 21.7285ZM114.502 21.7285C114.502 28.7109 120.166 34.3262 127.148 34.3262C134.082 34.3262 139.697 28.7109 139.697 21.7285C139.697 14.7461 134.082 9.13086 127.148 9.13086C120.166 9.13086 114.502 14.7461 114.502 21.7285Z"/>
  </g>
  <g id="Bold-L" transform="matrix(1 0 0 1 2251.97 1556)">
   <path d="M12.8906-86.9629C12.8906-83.1055 16.0645-79.9316 19.8242-79.9316L38.1836-79.9316L47.7051-15.1855C49.1699-5.37109 54.4434 0.585938 64.3555 0.585938L137.744 0.585938C141.113 0.585938 144.189-1.95312 144.189-5.76172C144.189-9.52148 141.113-12.0117 137.744-12.0117L66.1621-12.0117C63.623-12.0117 62.0605-13.7695 61.6699-16.4551L60.6445-23.2422L138.477-23.2422C148.438-23.2422 153.76-29.1504 155.225-39.1602L159.619-69.0918C159.766-69.9707 159.912-71.0938 159.912-71.875C159.912-76.123 157.129-79.0527 151.953-79.0527L52.6855-79.0527L51.7578-85.1562C50.9766-91.0156 48.3398-93.9453 41.0156-93.9453L19.8242-93.9453C16.0645-93.9453 12.8906-90.7715 12.8906-86.9629ZM58.3496 21.3867C58.3496 27.8809 63.5742 33.0566 70.0195 33.0566C76.5625 33.0566 81.7383 27.8809 81.7383 21.3867C81.7383 14.8926 76.5625 9.66797 70.0195 9.66797C63.5742 9.66797 58.3496 14.8926 58.3496 21.3867ZM115.576 21.3867C115.576 27.8809 120.85 33.0566 127.295 33.0566C133.789 33.0566 138.965 27.8809 138.965 21.3867C138.965 14.8926 133.789 9.66797 127.295 9.66797C120.85 9.66797 115.576 14.8926 115.576 21.3867Z"/>
  </g>
  <g id="Semibold-L" transform="matrix(1 0 0 1 1955.77 1556)">
   <path d="M12.8906-87.4023C12.8906-84.1797 15.5762-81.4941 18.75-81.4941L38.4766-81.4941L48.291-14.502C49.6582-5.22461 54.6387 0.439453 64.0137 0.439453L137.695 0.439453C140.625 0.439453 143.213-1.75781 143.213-5.0293C143.213-8.30078 140.625-10.498 137.695-10.498L65.5762-10.498C62.5488-10.498 60.6934-12.5488 60.2051-15.7227L59.1309-22.8516L138.086-22.8516C147.607-22.8516 152.539-28.5156 153.955-37.9883L158.643-69.3848C158.74-70.166 158.887-71.2891 158.887-71.9727C158.887-75.6836 156.396-78.2227 151.904-78.2227L51.1719-78.2227L50.0977-85.4492C49.3652-90.6738 47.1191-93.3594 40.4297-93.3594L18.75-93.3594C15.5762-93.3594 12.8906-90.625 12.8906-87.4023ZM58.7402 21.1426C58.7402 27.2949 63.6719 32.1777 69.7754 32.1777C75.9766 32.1777 80.8594 27.2949 80.8594 21.1426C80.8594 14.9902 75.9766 10.0586 69.7754 10.0586C63.6719 10.0586 58.7402 14.9902 58.7402 21.1426ZM116.309 21.1426C116.309 27.2949 121.289 32.1777 127.441 32.1777C133.594 32.1777 138.477 27.2949 138.477 21.1426C138.477 14.9902 133.594 10.0586 127.441 10.0586C121.289 10.0586 116.309 14.9902 116.309 21.1426Z"/>
  </g>
  <g id="Medium-L" transform="matrix(1 0 0 1 1659.45 1556)">
   <path d="M12.8906-87.793C12.8906-85.0098 15.1855-82.666 17.9199-82.666L38.6719-82.666L48.7305-13.9648C50.0488-5.07812 54.7363 0.341797 63.7695 0.341797L137.646 0.341797C140.234 0.341797 142.48-1.66016 142.48-4.49219C142.48-7.37305 140.234-9.375 137.646-9.375L65.0879-9.375C61.7188-9.375 59.668-11.6211 59.1309-15.1855L58.0078-22.5098L137.793-22.5098C146.973-22.5098 151.611-27.9785 152.979-37.1094L157.861-69.5801C158.008-70.3613 158.105-71.4355 158.105-72.0215C158.105-75.3906 155.811-77.6367 151.904-77.6367L50-77.6367L48.7793-85.6934C48.0957-90.4785 46.2402-92.8711 40.0391-92.8711L17.9199-92.8711C15.1855-92.8711 12.8906-90.5273 12.8906-87.793ZM59.0332 20.9473C59.0332 26.8555 63.7207 31.543 69.6289 31.543C75.4883 31.543 80.2246 26.8555 80.2246 20.9473C80.2246 15.0391 75.4883 10.3516 69.6289 10.3516C63.7207 10.3516 59.0332 15.0391 59.0332 20.9473ZM116.846 20.9473C116.846 26.8555 121.631 31.543 127.539 31.543C133.398 31.543 138.135 26.8555 138.135 20.9473C138.135 15.0391 133.398 10.3516 127.539 10.3516C121.631 10.3516 116.846 15.0391 116.846 20.9473Z"/>
  </g>
  <g id="Regular-L" transform="matrix(1 0 0 1 1363.25 1556)">
   <path d="M12.8906-88.2324C12.8906-86.0352 14.6484-84.1797 16.8457-84.1797L38.916-84.1797L49.2676-13.2812C50.4883-4.93164 54.9316 0.244141 63.4277 0.244141L137.646 0.244141C139.697 0.244141 141.553-1.51367 141.553-3.80859C141.553-6.15234 139.697-7.86133 137.646-7.86133L64.502-7.86133C60.6934-7.86133 58.3008-10.4004 57.7148-14.4531L56.543-22.0703L137.354-22.0703C146.143-22.0703 150.439-27.3438 151.709-35.9375L156.885-69.873C156.982-70.6055 157.129-71.6309 157.129-72.1191C157.129-74.9512 155.078-76.8066 151.855-76.8066L48.4863-76.8066L47.1191-86.0352C46.5332-90.1855 45.0195-92.2852 39.502-92.2852L16.8457-92.2852C14.6484-92.2852 12.8906-90.4297 12.8906-88.2324ZM59.375 20.7031C59.375 26.2695 63.8184 30.6641 69.3848 30.6641C74.9512 30.6641 79.3457 26.2695 79.3457 20.7031C79.3457 15.1367 74.9512 10.7422 69.3848 10.7422C63.8184 10.7422 59.375 15.1367 59.375 20.7031ZM117.578 20.7031C117.578 26.2695 122.07 30.6641 127.637 30.6641C133.203 30.6641 137.646 26.2695 137.646 20.7031C137.646 15.1367 133.203 10.7422 127.637 10.7422C122.07 10.7422 117.578 15.1367 117.578 20.7031Z"/>
  </g>
  <g id="Light-L" transform="matrix(1 0 0 1 1067.32 1556)">
   <path d="M12.8906-88.623C12.8906-86.9629 14.209-85.498 15.8691-85.498L39.0137-85.498L49.8047-12.3047C50.8789-4.78516 54.8828-0.146484 62.5488-0.146484L137.646-0.146484C139.258-0.146484 140.625-1.51367 140.625-3.27148C140.625-5.07812 139.258-6.39648 137.646-6.39648L63.623-6.39648C59.4727-6.39648 56.9336-8.93555 56.25-13.3789L54.834-22.4121L136.865-22.4121C145.068-22.4121 148.779-27.0996 150-35.0098L155.322-69.7754C155.42-70.4102 155.566-71.4355 155.566-71.875C155.566-74.4141 153.857-76.0254 150.977-76.0254L46.875-76.0254L45.2148-86.9141C44.7754-90.0391 43.6035-91.6992 39.2578-91.6992L15.8691-91.6992C14.209-91.6992 12.8906-90.2832 12.8906-88.623ZM60.2051 20.3613C60.2051 25.7324 64.4531 30.0293 69.8242 30.0293C75.1953 30.0293 79.4922 25.7324 79.4922 20.3613C79.4922 14.9902 75.1953 10.7422 69.8242 10.7422C64.4531 10.7422 60.2051 14.9902 60.2051 20.3613ZM117.48 20.3613C117.48 25.7324 121.826 30.0293 127.197 30.0293C132.568 30.0293 136.816 25.7324 136.816 20.3613C136.816 14.9902 132.568 10.7422 127.197 10.7422C121.826 10.7422 117.48 14.9902 117.48 20.3613Z"/>
  </g>
  <g id="Thin-L" transform="matrix(1 0 0 1 771.632 1556)">
   <path d="M12.8906-89.1113C12.8906-88.1348 13.5742-87.2559 14.6484-87.2559L39.209-87.2559L50.4883-10.9863C51.416-4.58984 54.7852-0.683594 61.4258-0.683594L137.695-0.683594C138.623-0.683594 139.453-1.51367 139.453-2.58789C139.453-3.66211 138.623-4.44336 137.695-4.44336L62.4023-4.44336C57.8613-4.44336 55.0781-6.98242 54.2969-11.9141L52.6367-22.8027L136.182-22.8027C143.604-22.8027 146.631-26.7578 147.705-33.8379L153.271-69.6289C153.369-70.166 153.516-71.1914 153.516-71.5332C153.516-73.6816 152.246-74.9512 149.805-74.9512L44.7266-74.9512L42.7246-88.0371C42.4316-89.8926 41.6992-90.9668 38.916-90.9668L14.6484-90.9668C13.5742-90.9668 12.8906-90.0879 12.8906-89.1113ZM61.2305 19.9219C61.2305 25.0488 65.332 29.1504 70.459 29.1504C75.5859 29.1504 79.6387 25.0488 79.6387 19.9219C79.6387 14.7949 75.5859 10.7422 70.459 10.7422C65.332 10.7422 61.2305 14.7949 61.2305 19.9219ZM117.285 19.9219C117.285 25.0488 121.436 29.1504 126.562 29.1504C131.689 29.1504 135.791 25.0488 135.791 19.9219C135.791 14.7949 131.689 10.7422 126.562 10.7422C121.436 10.7422 117.285 14.7949 117.285 19.9219Z"/>
  </g>
  <g id="Ultralight-L" transform="matrix(1 0 0 1 475.434 1556)">
   <path d="M12.8906-89.3555C12.8906-88.7207 13.2812-88.1348 14.0137-88.1348L39.3066-88.1348L50.8301-10.3516C51.6602-4.49219 54.7363-0.976562 60.8398-0.976562L137.695-0.976562C138.33-0.976562 138.818-1.51367 138.818-2.19727C138.818-2.92969 138.33-3.41797 137.695-3.41797L61.7676-3.41797C57.0312-3.41797 54.1504-6.00586 53.3203-11.1816L51.4648-22.998L135.84-22.998C142.871-22.998 145.508-26.5625 146.533-33.2031L152.197-69.5801C152.295-70.0195 152.441-71.0938 152.441-71.3867C152.441-73.291 151.416-74.4141 149.219-74.4141L43.6035-74.4141L41.4551-88.623C41.2598-89.8438 40.7227-90.5762 38.7695-90.5762L14.0137-90.5762C13.2812-90.5762 12.8906-89.9902 12.8906-89.3555ZM61.7676 19.7266C61.7676 24.707 65.7715 28.7109 70.752 28.7109C75.7812 28.7109 79.7363 24.707 79.7363 19.7266C79.7363 14.6973 75.7812 10.7422 70.752 10.7422C65.7715 10.7422 61.7676 14.6973 61.7676 19.7266ZM117.188 19.7266C117.188 24.707 121.24 28.7109 126.27 28.7109C131.299 28.7109 135.254 24.707 135.254 19.7266C135.254 14.6973 131.299 10.7422 126.27 10.7422C121.24 10.7422 117.188 14.6973 117.188 19.7266Z"/>
  </g>
  <g id="Black-M" transform="matrix(1 0 0 1 2863.62 1126)">
   <path d="M9.96094-73.6816C9.96094-68.6523 14.209-64.502 19.043-64.502L28.7109-64.502L35.0098-21.875C36.4258-12.5977 41.5527-7.22656 50.7324-7.22656L106.885-7.22656C111.133-7.22656 114.941-10.0586 114.941-14.8438C114.941-19.5801 111.133-22.3145 106.885-22.3145L53.125-22.3145C52.832-22.3145 52.6855-22.6074 52.6367-22.9004L51.9531-27.7344L108.594-27.7344C117.676-27.7344 122.949-32.9102 124.268-42.3828L126.758-60.3516C126.904-61.1328 127.1-62.1582 127.1-63.2324C127.1-68.2617 124.023-71.9727 117.383-71.9727L45.8984-71.9727L45.7031-73.1445C44.8242-79.541 41.3574-82.8125 33.7891-82.8125L19.043-82.8125C14.209-82.8125 9.96094-78.6621 9.96094-73.6816ZM44.1895 9.375C44.1895 15.6738 49.3164 20.6543 55.4688 20.6543C61.7188 20.6543 66.748 15.6738 66.748 9.375C66.748 3.17383 61.7188-1.9043 55.4688-1.9043C49.3164-1.9043 44.1895 3.17383 44.1895 9.375ZM86.6211 9.375C86.6211 15.6738 91.748 20.6543 97.9492 20.6543C104.15 20.6543 109.18 15.6738 109.18 9.375C109.18 3.17383 104.15-1.9043 97.9492-1.9043C91.748-1.9043 86.6211 3.17383 86.6211 9.375Z"/>
  </g>
  <g id="Heavy-M" transform="matrix(1 0 0 1 2567.43 1126)">
   <path d="M9.96094-74.2188C9.96094-69.9707 13.5742-66.3574 17.7734-66.3574L29.0039-66.3574L35.6934-21.1426C37.0117-12.4023 41.7969-7.27539 50.4883-7.27539L106.836-7.27539C110.498-7.27539 113.818-9.81445 113.818-13.9648C113.818-18.0664 110.498-20.5566 106.836-20.5566L52.5391-20.5566C51.6113-20.5566 51.0742-21.2402 50.9277-22.168L50.2441-27.0508L108.154-27.0508C116.797-27.0508 121.68-32.0312 122.9-40.918L125.781-60.7422C125.879-61.5234 126.025-62.5 126.025-63.3789C126.025-67.8223 123.291-71.0449 117.578-71.0449L44.1406-71.0449L43.7988-73.3887C43.0176-79.1504 40.0391-82.0801 33.0566-82.0801L17.7734-82.0801C13.5742-82.0801 9.96094-78.5156 9.96094-74.2188ZM44.4824 9.13086C44.4824 14.9414 49.2676 19.6289 54.9805 19.6289C60.8398 19.6289 65.4785 14.9414 65.4785 9.13086C65.4785 3.32031 60.8398-1.36719 54.9805-1.36719C49.2676-1.36719 44.4824 3.32031 44.4824 9.13086ZM87.7441 9.13086C87.7441 14.9414 92.4316 19.6289 98.2422 19.6289C104.004 19.6289 108.691 14.9414 108.691 9.13086C108.691 3.32031 104.004-1.36719 98.2422-1.36719C92.4316-1.36719 87.7441 3.32031 87.7441 9.13086Z"/>
  </g>
  <g id="Bold-M" transform="matrix(1 0 0 1 2271.3 1126)">
   <path d="M9.96094-74.9023C9.96094-71.3867 12.8906-68.457 16.3086-68.457L29.3945-68.457L36.4746-20.3125C37.6465-12.207 42.0898-7.37305 50.1953-7.37305L106.787-7.37305C109.814-7.37305 112.598-9.57031 112.598-12.9883C112.598-16.4062 109.814-18.6035 106.787-18.6035L51.8066-18.6035C50.293-18.6035 49.3164-19.6777 49.0723-21.3379L48.3398-26.3184L107.666-26.3184C115.771-26.3184 120.215-31.1035 121.436-39.3066L124.609-61.2305C124.756-61.9629 124.854-62.8418 124.854-63.5742C124.854-67.2852 122.461-69.9219 117.773-69.9219L42.1875-69.9219L41.6504-73.6328C40.9668-78.7109 38.5254-81.2988 32.2754-81.2988L16.3086-81.2988C12.8906-81.2988 9.96094-78.3691 9.96094-74.9023ZM44.873 8.83789C44.873 14.209 49.2188 18.457 54.4922 18.457C59.8145 18.457 64.1113 14.209 64.1113 8.83789C64.1113 3.51562 59.8145-0.78125 54.4922-0.78125C49.2188-0.78125 44.873 3.51562 44.873 8.83789ZM88.916 8.83789C88.916 14.209 93.2617 18.457 98.584 18.457C103.857 18.457 108.154 14.209 108.154 8.83789C108.154 3.51562 103.857-0.78125 98.584-0.78125C93.2617-0.78125 88.916 3.51562 88.916 8.83789Z"/>
  </g>
  <g id="Semibold-M" transform="matrix(1 0 0 1 1975 1126)">
   <path d="M9.96094-75.3418C9.96094-72.3633 12.4512-69.9219 15.332-69.9219L29.6387-69.9219L36.9629-19.7754C38.1348-12.0605 42.2363-7.42188 50-7.42188L106.738-7.42188C109.375-7.42188 111.719-9.375 111.719-12.3535C111.719-15.2832 109.375-17.2363 106.738-17.2363L51.3672-17.2363C49.3652-17.2363 48.0957-18.6523 47.8027-20.752L47.0215-25.7812L107.324-25.7812C115.088-25.7812 119.238-30.4199 120.361-38.2324L123.828-61.5723C123.926-62.207 124.072-63.0859 124.072-63.7207C124.072-66.9434 121.875-69.1895 117.92-69.1895L40.8691-69.1895L40.1855-73.7793C39.502-78.418 37.5-80.7617 31.6895-80.7617L15.332-80.7617C12.4512-80.7617 9.96094-78.2715 9.96094-75.3418ZM45.1172 8.64258C45.1172 13.6719 49.1699 17.627 54.1016 17.627C59.1309 17.627 63.1348 13.6719 63.1348 8.64258C63.1348 3.66211 59.1309-0.341797 54.1016-0.341797C49.1699-0.341797 45.1172 3.66211 45.1172 8.64258ZM89.7461 8.64258C89.7461 13.6719 93.7988 17.627 98.7793 17.627C103.76 17.627 107.764 13.6719 107.764 8.64258C107.764 3.66211 103.76-0.341797 98.7793-0.341797C93.7988-0.341797 89.7461 3.66211 89.7461 8.64258Z"/>
  </g>
  <g id="Medium-M" transform="matrix(1 0 0 1 1678.61 1126)">
   <path d="M9.96094-75.6836C9.96094-73.1445 12.1094-70.9961 14.5508-70.9961L29.834-70.9961L37.4023-19.3359C38.4766-11.9629 42.3828-7.4707 49.8535-7.4707L106.689-7.4707C108.984-7.4707 111.084-9.27734 111.084-11.8652C111.084-14.4043 108.984-16.2109 106.689-16.2109L50.9766-16.2109C48.6328-16.2109 47.168-17.8223 46.8262-20.3125L46.0449-25.3906L107.08-25.3906C114.551-25.3906 118.506-29.9316 119.58-37.3535L123.242-61.8164C123.34-62.4512 123.438-63.2812 123.438-63.8184C123.438-66.6992 121.436-68.6523 118.066-68.6523L39.8438-68.6523L39.0625-73.9258C38.4277-78.1738 36.7188-80.3223 31.2988-80.3223L14.5508-80.3223C12.1094-80.3223 9.96094-78.1738 9.96094-75.6836ZM45.3125 8.49609C45.3125 13.2324 49.1211 17.041 53.8574 17.041C58.5938 17.041 62.4023 13.2324 62.4023 8.49609C62.4023 3.75977 58.5938-0.0488281 53.8574-0.0488281C49.1211-0.0488281 45.3125 3.75977 45.3125 8.49609ZM90.3809 8.49609C90.3809 13.2324 94.2383 17.041 98.9746 17.041C103.711 17.041 107.471 13.2324 107.471 8.49609C107.471 3.75977 103.711-0.0488281 98.9746-0.0488281C94.2383-0.0488281 90.3809 3.75977 90.3809 8.49609Z"/>
  </g>
  <g id="Regular-M" transform="matrix(1 0 0 1 1382.29 1126)">
   <path d="M9.96094-76.123C9.96094-74.1211 11.6211-72.4121 13.5742-72.4121L30.0781-72.4121L37.8906-18.7988C38.916-11.8652 42.5781-7.51953 49.6582-7.51953L106.641-7.51953C108.545-7.51953 110.205-9.08203 110.205-11.1816C110.205-13.2812 108.545-14.8438 106.641-14.8438L50.4883-14.8438C47.7051-14.8438 45.9961-16.7969 45.5566-19.7754L44.7754-24.9023L106.738-24.9023C113.867-24.9023 117.529-29.2969 118.555-36.2793L122.461-62.1094C122.559-62.7441 122.656-63.5254 122.656-63.9648C122.656-66.3086 120.898-67.9199 118.213-67.9199L38.5254-67.9199L37.5488-74.1211C37.0605-77.8809 35.6934-79.7852 30.7129-79.7852L13.5742-79.7852C11.6211-79.7852 9.96094-78.0762 9.96094-76.123ZM45.5566 8.30078C45.5566 12.7441 49.0723 16.2109 53.5156 16.2109C57.9102 16.2109 61.4258 12.7441 61.4258 8.30078C61.4258 3.90625 57.9102 0.390625 53.5156 0.390625C49.0723 0.390625 45.5566 3.90625 45.5566 8.30078ZM91.2109 8.30078C91.2109 12.7441 94.7754 16.2109 99.1699 16.2109C103.613 16.2109 107.129 12.7441 107.129 8.30078C107.129 3.90625 103.613 0.390625 99.1699 0.390625C94.7754 0.390625 91.2109 3.90625 91.2109 8.30078Z"/>
  </g>
  <g id="Light-M" transform="matrix(1 0 0 1 1086.29 1126)">
   <path d="M9.96094-76.416C9.96094-74.9023 11.2305-73.584 12.7441-73.584L30.1758-73.584L38.3789-17.9199C39.2578-11.7188 42.5293-7.86133 48.877-7.86133L106.689-7.86133C108.105-7.86133 109.424-9.08203 109.424-10.6934C109.424-12.3047 108.105-13.5254 106.689-13.5254L49.707-13.5254C46.6309-13.5254 44.7266-15.4785 44.2383-18.7988L43.2617-25.1465L106.299-25.1465C112.891-25.1465 116.064-29.0527 117.041-35.4492L121.045-62.0117C121.143-62.5488 121.24-63.3789 121.24-63.7207C121.24-65.8203 119.775-67.1875 117.432-67.1875L37.0605-67.1875L35.8887-74.9023C35.4492-77.7832 34.4238-79.248 30.5176-79.248L12.7441-79.248C11.2305-79.248 9.96094-77.9785 9.96094-76.416ZM46.2891 8.00781C46.2891 12.2559 49.6582 15.625 53.9062 15.625C58.1543 15.625 61.5234 12.2559 61.5234 8.00781C61.5234 3.75977 58.1543 0.390625 53.9062 0.390625C49.6582 0.390625 46.2891 3.75977 46.2891 8.00781ZM91.1133 8.00781C91.1133 12.2559 94.5312 15.625 98.7793 15.625C103.027 15.625 106.396 12.2559 106.396 8.00781C106.396 3.75977 103.027 0.390625 98.7793 0.390625C94.5312 0.390625 91.1133 3.75977 91.1133 8.00781Z"/>
  </g>
  <g id="Thin-M" transform="matrix(1 0 0 1 790.48 1126)">
   <path d="M9.96094-76.8555C9.96094-75.9766 10.6445-75.1465 11.6211-75.1465L30.3223-75.1465L38.9648-16.748C39.7461-11.5234 42.4805-8.34961 47.8516-8.34961L106.689-8.34961C107.568-8.34961 108.35-9.08203 108.35-10.0586C108.35-11.0352 107.568-11.7676 106.689-11.7676L48.6328-11.7676C45.166-11.7676 43.1152-13.7695 42.5293-17.4805L41.2598-25.4883L105.664-25.4883C111.621-25.4883 114.111-28.7598 114.941-34.375L119.238-61.9141C119.287-62.3535 119.385-63.1836 119.385-63.4277C119.385-65.1855 118.359-66.2598 116.357-66.2598L35.1074-66.2598L33.6426-75.9277C33.3984-77.6367 32.7148-78.5645 30.2246-78.5645L11.6211-78.5645C10.6445-78.5645 9.96094-77.7832 9.96094-76.8555ZM47.2168 7.61719C47.2168 11.6699 50.4395 14.8438 54.4434 14.8438C58.4961 14.8438 61.6699 11.6699 61.6699 7.61719C61.6699 3.56445 58.4961 0.390625 54.4434 0.390625C50.4395 0.390625 47.2168 3.56445 47.2168 7.61719ZM90.918 7.61719C90.918 11.6699 94.1895 14.8438 98.2422 14.8438C102.246 14.8438 105.469 11.6699 105.469 7.61719C105.469 3.56445 102.246 0.390625 98.2422 0.390625C94.1895 0.390625 90.918 3.56445 90.918 7.61719Z"/>
  </g>
  <g id="Ultralight-M" transform="matrix(1 0 0 1 494.257 1126)">
   <path d="M9.96094-77.0996C9.96094-76.5137 10.4004-75.9766 11.0352-75.9766L30.4199-75.9766L39.3066-16.1621C39.9902-11.4258 42.4316-8.59375 47.3145-8.59375L106.689-8.59375C107.275-8.59375 107.764-9.08203 107.764-9.76562C107.764-10.4004 107.275-10.8887 106.689-10.8887L48.0469-10.8887C44.4336-10.8887 42.2363-12.8906 41.6016-16.7969L40.2344-25.6836L105.371-25.6836C110.938-25.6836 113.086-28.5645 113.916-33.8379L118.262-61.8652C118.359-62.2559 118.457-63.0371 118.457-63.2812C118.457-64.8438 117.627-65.7715 115.82-65.7715L34.1309-65.7715L32.5195-76.416C32.3242-77.5879 31.8359-78.2227 30.0781-78.2227L11.0352-78.2227C10.4004-78.2227 9.96094-77.6855 9.96094-77.0996ZM47.7051 7.42188C47.7051 11.3281 50.8301 14.4531 54.7363 14.4531C58.6426 14.4531 61.7676 11.3281 61.7676 7.42188C61.7676 3.51562 58.6426 0.390625 54.7363 0.390625C50.8301 0.390625 47.7051 3.51562 47.7051 7.42188ZM90.8691 7.42188C90.8691 11.3281 94.043 14.4531 97.9492 14.4531C101.855 14.4531 104.98 11.3281 104.98 7.42188C104.98 3.51562 101.855 0.390625 97.9492 0.390625C94.043 0.390625 90.8691 3.51562 90.8691 7.42188Z"/>
  </g>
  <g id="Black-S" transform="matrix(1 0 0 1 2878.76 696)">
   <path d="M7.8125-65.3809C7.8125-61.5234 11.084-58.3008 14.8438-58.3008L22.5098-58.3008L27.4902-24.707C28.5645-17.4805 32.5684-13.2812 39.7461-13.2812L83.7402-13.2812C87.0117-13.2812 89.9902-15.4785 89.9902-19.1895C89.9902-22.8516 87.0117-25 83.7402-25L41.6016-25C41.3086-25 41.1621-25.2441 41.1133-25.5371L40.5762-29.2969L85.0586-29.2969C92.1387-29.2969 96.2402-33.3496 97.2656-40.7227L99.2676-54.9316C99.3652-55.5664 99.5117-56.3477 99.5117-57.1777C99.5117-61.084 97.1191-63.9648 91.9922-63.9648L35.8398-63.9648L35.6934-64.9414C35.0098-69.9219 32.3242-72.4609 26.416-72.4609L14.8438-72.4609C11.084-72.4609 7.8125-69.2383 7.8125-65.3809ZM34.6191-0.292969C34.6191 4.58984 38.623 8.49609 43.4082 8.49609C48.291 8.49609 52.1973 4.58984 52.1973-0.292969C52.1973-5.12695 48.291-9.08203 43.4082-9.08203C38.623-9.08203 34.6191-5.12695 34.6191-0.292969ZM67.9688-0.292969C67.9688 4.58984 71.9238 8.49609 76.7578 8.49609C81.5918 8.49609 85.498 4.58984 85.498-0.292969C85.498-5.12695 81.5918-9.08203 76.7578-9.08203C71.9238-9.08203 67.9688-5.12695 67.9688-0.292969Z"/>
  </g>
  <g id="Heavy-S" transform="matrix(1 0 0 1 2582.37 696)">
   <path d="M7.8125-65.7715C7.8125-62.4023 10.6445-59.6191 13.9648-59.6191L22.7539-59.6191L27.9785-24.2676C29.0039-17.3828 32.7637-13.2812 39.6484-13.2812L83.6914-13.2812C86.5723-13.2812 89.209-15.2832 89.209-18.6035C89.209-21.8262 86.5723-23.7793 83.6914-23.7793L41.2109-23.7793C40.5273-23.7793 40.0879-24.3652 39.9902-25.0977L39.4531-28.7598L84.7656-28.7598C91.5527-28.7598 95.4102-32.7148 96.4355-39.6973L98.6328-55.2734C98.7305-55.8594 98.877-56.6406 98.877-57.3242C98.877-60.791 96.6797-63.2812 92.2363-63.2812L34.668-63.2812L34.4238-65.0391C33.7891-69.6289 31.4453-71.9727 25.8789-71.9727L13.9648-71.9727C10.6445-71.9727 7.8125-69.1406 7.8125-65.7715ZM34.8145-0.439453C34.8145 4.10156 38.5254 7.76367 43.0176 7.76367C47.5586 7.76367 51.2207 4.10156 51.2207-0.439453C51.2207-4.98047 47.5586-8.69141 43.0176-8.69141C38.5254-8.69141 34.8145-4.98047 34.8145-0.439453ZM68.7988-0.439453C68.7988 4.10156 72.5098 7.76367 77.0508 7.76367C81.543 7.76367 85.2051 4.10156 85.2051-0.439453C85.2051-4.98047 81.543-8.69141 77.0508-8.69141C72.5098-8.69141 68.7988-4.98047 68.7988-0.439453Z"/>
  </g>
  <g id="Bold-S" transform="matrix(1 0 0 1 2286.02 696)">
   <path d="M7.8125-66.2598C7.8125-63.4277 10.2051-61.0352 12.9395-61.0352L22.998-61.0352L28.4668-23.7305C29.4434-17.2363 32.959-13.3301 39.502-13.3301L83.6426-13.3301C86.1328-13.3301 88.3789-15.1367 88.3789-17.9199C88.3789-20.6543 86.1328-22.4609 83.6426-22.4609L40.7715-22.4609C39.5996-22.4609 38.916-23.3398 38.7207-24.5605L38.1836-28.125L84.4727-28.125C90.918-28.125 94.5312-32.0312 95.459-38.5742L97.9492-55.6152C98.0469-56.2012 98.1445-56.9336 98.1445-57.5195C98.1445-60.4492 96.1914-62.5488 92.4805-62.5488L33.3496-62.5488L32.959-65.1367C32.4219-69.2871 30.4688-71.4355 25.293-71.4355L12.9395-71.4355C10.2051-71.4355 7.8125-69.043 7.8125-66.2598ZM35.0098-0.634766C35.0098 3.56445 38.3789 6.93359 42.5781 6.93359C46.7773 6.93359 50.1465 3.56445 50.1465-0.634766C50.1465-4.83398 46.7773-8.20312 42.5781-8.20312C38.3789-8.20312 35.0098-4.83398 35.0098-0.634766ZM69.7266-0.634766C69.7266 3.56445 73.1445 6.93359 77.3438 6.93359C81.543 6.93359 84.8633 3.56445 84.8633-0.634766C84.8633-4.83398 81.543-8.20312 77.3438-8.20312C73.1445-8.20312 69.7266-4.83398 69.7266-0.634766Z"/>
  </g>
  <g id="Semibold-S" transform="matrix(1 0 0 1 1989.56 696)">
   <path d="M7.8125-66.5527C7.8125-64.1113 9.86328-62.0605 12.2559-62.0605L23.1934-62.0605L28.8574-23.3887C29.7852-17.1387 33.1055-13.3301 39.4531-13.3301L83.5938-13.3301C85.791-13.3301 87.793-14.9902 87.793-17.4316C87.793-19.873 85.791-21.5332 83.5938-21.5332L40.4785-21.5332C39.0137-21.5332 38.0859-22.6562 37.8418-24.2188L37.3047-27.7344L84.2285-27.7344C90.4785-27.7344 93.8965-31.543 94.8242-37.793L97.4609-55.9082C97.5586-56.4453 97.6562-57.1289 97.6562-57.6172C97.6562-60.2539 95.8496-62.0605 92.6758-62.0605L32.4707-62.0605L31.9824-65.1855C31.4453-69.0918 29.7852-71.0449 24.9023-71.0449L12.2559-71.0449C9.86328-71.0449 7.8125-68.9941 7.8125-66.5527ZM35.1074-0.78125C35.1074 3.22266 38.3301 6.34766 42.2363 6.34766C46.2402 6.34766 49.3652 3.22266 49.3652-0.78125C49.3652-4.6875 46.2402-7.86133 42.2363-7.86133C38.3301-7.86133 35.1074-4.6875 35.1074-0.78125ZM70.4102-0.78125C70.4102 3.22266 73.584 6.34766 77.5391 6.34766C81.4941 6.34766 84.668 3.22266 84.668-0.78125C84.668-4.6875 81.4941-7.86133 77.5391-7.86133C73.584-7.86133 70.4102-4.6875 70.4102-0.78125Z"/>
  </g>
  <g id="Medium-S" transform="matrix(1 0 0 1 1693.04 696)">
   <path d="M7.8125-66.7969C7.8125-64.6484 9.61914-62.793 11.7188-62.793L23.3398-62.793L29.1016-23.0957C30.0293-17.041 33.252-13.3301 39.3555-13.3301L83.5938-13.3301C85.5469-13.3301 87.3047-14.8926 87.3047-17.0898C87.3047-19.2871 85.5469-20.8496 83.5938-20.8496L40.2344-20.8496C38.5254-20.8496 37.4512-22.1191 37.207-23.9258L36.6699-27.3926L84.082-27.3926C90.1367-27.3926 93.4082-31.1523 94.2871-37.207L97.0703-56.1035C97.168-56.6406 97.2656-57.2754 97.2656-57.7148C97.2656-60.0586 95.5566-61.6699 92.8223-61.6699L31.7871-61.6699L31.25-65.2344C30.7129-68.8965 29.2969-70.752 24.6094-70.752L11.7188-70.752C9.61914-70.752 7.8125-68.9453 7.8125-66.7969ZM35.2539-0.830078C35.2539 2.92969 38.2324 5.95703 42.041 5.95703C45.8008 5.95703 48.8281 2.92969 48.8281-0.830078C48.8281-4.63867 45.8008-7.61719 42.041-7.61719C38.2324-7.61719 35.2539-4.63867 35.2539-0.830078ZM70.8984-0.830078C70.8984 2.92969 73.9258 5.95703 77.6855 5.95703C81.4941 5.95703 84.4727 2.92969 84.4727-0.830078C84.4727-4.63867 81.4941-7.61719 77.6855-7.61719C73.9258-7.61719 70.8984-4.63867 70.8984-0.830078Z"/>
  </g>
  <g id="Regular-S" transform="matrix(1 0 0 1 1396.57 696)">
   <path d="M7.8125-67.0898C7.8125-65.332 9.32617-63.8184 11.0352-63.8184L23.4863-63.8184L29.4434-22.7539C30.3223-16.9922 33.3984-13.3301 39.3066-13.3301L83.5449-13.3301C85.2539-13.3301 86.7188-14.7461 86.7188-16.6016C86.7188-18.5059 85.2539-19.9219 83.5449-19.9219L39.9414-19.9219C37.9395-19.9219 36.6211-21.4355 36.3281-23.584L35.791-27.002L83.8867-27.002C89.6973-27.002 92.7734-30.6641 93.6523-36.4258L96.6309-56.3477C96.7285-56.8359 96.7773-57.4707 96.7773-57.8125C96.7773-59.8145 95.2637-61.1816 92.9688-61.1816L30.8594-61.1816L30.2734-65.2832C29.7852-68.7012 28.6133-70.3613 24.1699-70.3613L11.0352-70.3613C9.32617-70.3613 7.8125-68.8965 7.8125-67.0898ZM35.3516-0.976562C35.3516 2.58789 38.1836 5.37109 41.6992 5.37109C45.2637 5.37109 48.0469 2.58789 48.0469-0.976562C48.0469-4.49219 45.2637-7.32422 41.6992-7.32422C38.1836-7.32422 35.3516-4.49219 35.3516-0.976562ZM71.5332-0.976562C71.5332 2.58789 74.3652 5.37109 77.9297 5.37109C81.4453 5.37109 84.2773 2.58789 84.2773-0.976562C84.2773-4.49219 81.4453-7.32422 77.9297-7.32422C74.3652-7.32422 71.5332-4.49219 71.5332-0.976562Z"/>
  </g>
  <g id="Light-S" transform="matrix(1 0 0 1 1100.5 696)">
   <path d="M7.8125-67.3828C7.8125-66.0156 8.93555-64.8438 10.3027-64.8438L23.584-64.8438L29.8828-21.9727C30.6152-16.8457 33.3496-13.6719 38.5742-13.6719L83.5449-13.6719C84.8633-13.6719 86.0352-14.7461 86.0352-16.2109C86.0352-17.6758 84.8633-18.75 83.5449-18.75L39.2578-18.75C36.9629-18.75 35.5469-20.2637 35.1562-22.7051L34.4727-27.2461L83.4473-27.2461C88.8184-27.2461 91.5039-30.4688 92.2852-35.7422L95.3613-56.25C95.459-56.6895 95.5078-57.3242 95.5078-57.6172C95.5078-59.375 94.2871-60.5469 92.2852-60.5469L29.5898-60.5469L28.7598-66.0156C28.3691-68.6035 27.4414-69.9219 23.9746-69.9219L10.3027-69.9219C8.93555-69.9219 7.8125-68.75 7.8125-67.3828ZM35.9863-1.2207C35.9863 2.14844 38.6719 4.83398 42.0898 4.83398C45.459 4.83398 48.1445 2.14844 48.1445-1.2207C48.1445-4.63867 45.459-7.32422 42.0898-7.32422C38.6719-7.32422 35.9863-4.63867 35.9863-1.2207ZM71.4355-1.2207C71.4355 2.14844 74.1699 4.83398 77.5391 4.83398C80.957 4.83398 83.6426 2.14844 83.6426-1.2207C83.6426-4.63867 80.957-7.32422 77.5391-7.32422C74.1699-7.32422 71.4355-4.63867 71.4355-1.2207Z"/>
  </g>
  <g id="Thin-S" transform="matrix(1 0 0 1 804.591 696)">
   <path d="M7.8125-67.7734C7.8125-66.9434 8.44727-66.2109 9.32617-66.2109L23.7305-66.2109L30.4199-20.9473C31.0547-16.6992 33.3008-14.0625 37.6953-14.0625L83.5938-14.0625C84.375-14.0625 85.0586-14.7461 85.0586-15.625C85.0586-16.5527 84.375-17.1875 83.5938-17.1875L38.2812-17.1875C35.6934-17.1875 34.082-18.75 33.6426-21.582L32.7148-27.5391L82.9102-27.5391C87.6953-27.5391 89.7461-30.2246 90.4785-34.7656L93.75-56.1523C93.7988-56.543 93.8965-57.1777 93.8965-57.373C93.8965-58.8379 93.0176-59.7168 91.3574-59.7168L27.8809-59.7168L26.8066-66.8945C26.5625-68.5059 25.9766-69.3359 23.7305-69.3359L9.32617-69.3359C8.44727-69.3359 7.8125-68.6035 7.8125-67.7734ZM36.8164-1.5625C36.8164 1.61133 39.3555 4.15039 42.5781 4.15039C45.752 4.15039 48.291 1.61133 48.291-1.5625C48.291-4.78516 45.752-7.32422 42.5781-7.32422C39.3555-7.32422 36.8164-4.78516 36.8164-1.5625ZM71.2891-1.5625C71.2891 1.61133 73.877 4.15039 77.0508 4.15039C80.2734 4.15039 82.8125 1.61133 82.8125-1.5625C82.8125-4.78516 80.2734-7.32422 77.0508-7.32422C73.877-7.32422 71.2891-4.78516 71.2891-1.5625Z"/>
  </g>
  <g id="Ultralight-S" transform="matrix(1 0 0 1 508.295 696)">
   <path d="M7.8125-67.9688C7.8125-67.4316 8.20312-66.9434 8.78906-66.9434L23.8281-66.9434L30.7129-20.4102C31.25-16.6016 33.252-14.3066 37.207-14.3066L83.5938-14.3066C84.1309-14.3066 84.5703-14.7461 84.5703-15.332C84.5703-15.9668 84.1309-16.4062 83.5938-16.4062L37.793-16.4062C35.0098-16.4062 33.3496-17.9688 32.8613-20.9961L31.7871-27.6855L82.6172-27.6855C87.1094-27.6855 88.8672-30.0781 89.502-34.2773L92.9199-56.1035C92.9688-56.3965 93.0664-57.0312 93.0664-57.2754C93.0664-58.4961 92.334-59.2773 90.8691-59.2773L27.002-59.2773L25.7812-67.3828C25.5859-68.4082 25.1953-68.9941 23.6328-68.9941L8.78906-68.9941C8.20312-68.9941 7.8125-68.5059 7.8125-67.9688ZM37.2559-1.75781C37.2559 1.31836 39.6973 3.80859 42.8223 3.80859C45.8984 3.80859 48.3887 1.31836 48.3887-1.75781C48.3887-4.88281 45.8984-7.32422 42.8223-7.32422C39.6973-7.32422 37.2559-4.88281 37.2559-1.75781ZM71.1914-1.75781C71.1914 1.31836 73.7305 3.80859 76.8066 3.80859C79.9316 3.80859 82.373 1.31836 82.373-1.75781C82.373-4.88281 79.9316-7.32422 76.8066-7.32422C73.7305-7.32422 71.1914-4.88281 71.1914-1.75781Z"/>
  </g>
 </g>
</svg>
